<?xml version="1.0" standalone="no"?>
<!DOCTYPE svg PUBLIC "-//W3C//DTD SVG 20010904//EN"
 "http://www.w3.org/TR/2001/REC-SVG-20010904/DTD/svg10.dtd">
<svg version="1.0" xmlns="http://www.w3.org/2000/svg"
 width="747.000000pt" height="195.000000pt" viewBox="0 0 747.000000 195.000000"
 preserveAspectRatio="xMidYMid meet">
<metadata>
Created by potrace 1.16, written by Peter Selinger 2001-2019
</metadata>
<g transform="translate(0.000000,195.000000) scale(0.100000,-0.100000)"
fill="#ffffff" stroke="none">
<path d="M5293 1535 c-43 -69 -139 -208 -213 -310 -120 -164 -140 -186 -175
-198 -37 -13 -40 -17 -40 -50 0 -28 -8 -45 -40 -77 -95 -99 -209 -169 -280
-172 -45 -2 -55 8 -28 27 130 91 223 205 231 283 4 44 2 51 -23 70 -56 45
-115 24 -197 -69 -81 -90 -118 -157 -125 -224 -5 -48 -10 -58 -34 -70 -39 -21
-63 -20 -54 3 36 86 23 148 -39 194 -66 49 -71 62 -47 109 32 61 25 87 -23 75
-21 -5 -76 -107 -145 -268 -15 -37 -32 -55 -76 -83 -55 -35 -124 -65 -151 -65
-22 0 -17 67 10 132 21 51 55 113 88 160 10 14 10 21 -3 33 -15 15 -23 14 -95
-9 -137 -43 -124 -44 -124 8 0 42 -2 46 -25 46 -33 0 -45 -27 -45 -102 0 -106
-57 -197 -147 -235 -47 -19 -80 -16 -97 9 -28 39 -20 81 28 151 81 118 91 157
41 157 -19 0 -37 -21 -90 -105 -37 -58 -85 -121 -107 -139 -48 -41 -155 -99
-168 -91 -5 3 -12 21 -16 40 -9 51 20 130 72 198 47 61 52 78 29 97 -16 13
-32 6 -57 -26 -17 -21 -112 -88 -140 -99 -10 -4 -21 10 -36 43 -32 71 -80 113
-136 119 -43 5 -48 3 -83 -34 -37 -39 -115 -156 -147 -219 -17 -36 -123 -118
-210 -164 -157 -82 -279 12 -247 191 29 170 318 588 448 649 58 27 79 20 87
-31 12 -76 72 -59 63 19 -12 107 -110 126 -231 43 -83 -58 -203 -217 -356
-475 -144 -242 -321 -394 -480 -412 -40 -4 -66 -2 -94 10 l-39 16 60 39 c98
63 166 163 179 263 12 86 -33 132 -101 104 -38 -16 -111 -87 -155 -151 -33
-48 -70 -151 -70 -195 0 -34 -26 -50 -80 -50 -51 0 -49 45 6 165 31 66 33 154
4 180 -14 13 -28 16 -55 11 -19 -4 -35 -5 -35 -2 0 3 13 34 30 68 56 120 112
273 117 325 7 67 -14 106 -55 101 -20 -2 -38 -20 -75 -72 -56 -83 -131 -227
-182 -351 -55 -135 -139 -285 -182 -327 -94 -90 -187 -122 -217 -76 -21 34
-27 101 -15 156 5 28 50 130 99 229 l89 178 88 10 c74 8 88 13 91 29 6 28 -16
36 -80 29 -71 -7 -72 -3 -23 117 39 95 42 118 19 127 -23 9 -47 -20 -108 -132
-30 -55 -60 -106 -66 -112 -7 -9 -41 -13 -100 -13 -75 0 -91 -3 -99 -18 -6
-10 -6 -24 0 -34 7 -13 22 -15 93 -11 l85 6 -55 -139 c-85 -216 -91 -227 -168
-302 -77 -77 -160 -132 -237 -157 -41 -14 -49 -21 -49 -41 0 -14 7 -27 16 -31
28 -11 199 83 268 147 l63 60 7 -41 c22 -137 110 -176 230 -104 32 19 59 35
60 35 1 0 0 -15 -2 -34 -3 -25 1 -35 13 -40 27 -10 55 14 151 126 109 128 210
228 230 228 24 0 17 -59 -17 -139 -67 -159 -12 -243 130 -200 33 10 41 8 75
-14 115 -79 305 -23 475 139 l89 85 0 -45 c-2 -109 50 -194 132 -216 82 -22
179 7 302 90 39 27 60 36 62 28 3 -7 9 -29 16 -49 23 -78 85 -102 165 -64 59
29 178 151 206 212 16 37 32 56 56 67 19 9 36 16 38 16 2 0 -2 -19 -10 -41
-30 -83 -8 -183 41 -195 33 -8 109 20 179 66 l60 40 16 -38 c30 -69 105 -81
206 -33 69 33 110 80 139 159 22 61 29 67 93 85 53 15 53 15 48 -6 -3 -12 -17
-50 -32 -85 -14 -34 -29 -84 -32 -111 -5 -41 -2 -52 17 -71 32 -32 104 -24
193 20 82 40 122 83 167 178 18 39 38 72 44 72 6 0 31 -19 55 -41 41 -38 43
-43 39 -83 -10 -86 -45 -110 -128 -86 -49 14 -70 5 -70 -30 0 -52 52 -64 191
-42 42 6 97 19 123 27 41 14 49 14 75 0 41 -21 110 -19 171 5 62 24 57 24 63
0 14 -54 67 -8 190 165 103 144 88 134 247 154 46 6 85 9 87 7 3 -2 -10 -44
-27 -92 -52 -148 -91 -306 -78 -321 27 -33 47 -11 67 72 6 28 32 116 58 197
l46 147 56 6 c31 4 69 10 84 15 16 5 27 6 25 2 -2 -4 -30 -75 -63 -157 -62
-158 -230 -505 -284 -589 -34 -55 -39 -84 -15 -93 29 -11 65 41 176 261 138
275 293 513 392 604 54 50 164 105 198 100 54 -7 19 -127 -62 -208 -60 -60
-109 -81 -181 -78 -49 2 -63 0 -72 -14 -9 -14 -8 -21 6 -35 13 -14 34 -18 85
-18 59 0 77 5 152 43 47 24 118 66 158 92 39 26 72 47 72 45 0 -1 -20 -44 -44
-96 -24 -52 -64 -144 -89 -205 -54 -133 -128 -281 -209 -422 -59 -103 -69
-144 -36 -150 22 -4 93 112 205 333 142 282 233 420 369 561 75 77 126 114
161 114 33 0 63 -45 63 -97 0 -53 -11 -76 -58 -126 l-36 -37 -87 6 c-82 6 -87
5 -98 -15 -10 -18 -8 -25 13 -46 25 -25 26 -25 173 -21 115 3 164 9 218 26 96
30 272 117 380 188 50 33 92 58 94 56 2 -1 -10 -25 -26 -51 -16 -26 -32 -55
-35 -65 -9 -21 15 -53 34 -45 9 3 41 54 73 114 31 59 68 123 82 141 40 53 4
103 -49 68 -22 -14 -149 -33 -262 -39 -52 -2 -74 -21 -63 -52 6 -15 18 -16
115 -10 l107 7 -58 -41 c-93 -66 -217 -138 -296 -171 -71 -30 -221 -74 -228
-66 -2 2 11 27 29 56 25 40 33 66 36 114 6 89 -17 130 -89 160 -66 27 -135
-15 -269 -165 -44 -49 -80 -84 -80 -78 0 6 23 54 50 107 53 101 59 135 24 140
-15 2 -32 -12 -63 -53 -37 -50 -145 -145 -163 -145 -4 0 4 24 17 53 27 57 31
102 14 141 -51 110 -293 -5 -420 -200 -23 -36 -43 -63 -45 -61 -2 2 19 55 47
118 58 129 65 162 33 167 -16 2 -26 -8 -45 -42 -13 -25 -33 -49 -44 -54 -29
-13 -135 -35 -141 -29 -3 3 6 43 19 88 29 98 71 271 92 383 17 86 11 106 -30
106 -19 0 -38 -24 -102 -125z m37 -156 c-31 -126 -77 -278 -89 -291 -8 -9
-192 -31 -199 -24 -3 3 28 49 68 102 40 53 106 146 147 208 82 122 94 138 99
133 2 -2 -10 -59 -26 -128z m-3974 5 c-64 -190 -163 -382 -243 -474 -25 -28
-47 -49 -50 -47 -2 3 12 37 32 77 20 39 56 122 81 183 67 162 178 357 196 339
4 -4 -2 -39 -16 -78z m3334 -348 c0 -13 -18 -47 -40 -75 -39 -49 -165 -161
-182 -161 -11 0 1 47 23 91 25 50 65 96 119 135 55 41 80 44 80 10z m-2982
-24 c5 -33 -41 -125 -88 -176 -44 -48 -107 -92 -117 -83 -3 3 5 39 17 79 20
65 29 80 92 141 70 69 90 78 96 39z m1160 -12 c29 -29 51 -85 38 -97 -3 -4
-30 -8 -60 -11 -45 -4 -57 -1 -75 17 -18 18 -20 25 -10 44 14 26 60 77 70 77
4 0 21 -13 37 -30z m-154 -125 c9 -25 74 -47 128 -43 26 1 48 1 48 -1 0 -18
-53 -81 -102 -122 -92 -76 -131 -77 -156 -4 -16 48 -9 80 28 139 31 49 44 56
54 31z"/>
</g>
</svg>
